name C:\Users\u0150099\Documents\master_thesis\3dpredictsim\Results\debug\Fal_s1_mtjc2_sc_cspx10_oy2_ATx70_Fpsl10_MTc4_MTPm_k1_d01_tau_MTJm_nl_MG_exp5_table_d01_PF_Natali2010_ls146_FDB2_lTs125_Fpsl10_ig21_wAk5e+04_wa2e+03_wpMnD1e+03.mot
datacolumns 130
datarows 4
range 0.52259709 0.55395292
endheader
time	pelvis_tilt	pelvis_list	pelvis_rotation	pelvis_tx	pelvis_ty	pelvis_tz	hip_flexion_l	hip_adduction_l	hip_rotation_l	hip_flexion_r	hip_adduction_r	hip_rotation_r	knee_angle_l	knee_angle_r	ankle_angle_l	ankle_angle_r	subtalar_angle_l	subtalar_angle_r	mtj_angle_l	mtj_angle_r	mtp_angle_l	mtp_angle_r	lumbar_extension	lumbar_bending	lumbar_rotation	arm_flex_l	arm_add_l	arm_rot_l	arm_flex_r	arm_add_r	arm_rot_r	elbow_flex_l	elbow_flex_r	pro_sup_l	pro_sup_r	glut_med1_l/activation	glut_med2_l/activation	glut_med3_l/activation	glut_min1_l/activation	glut_min2_l/activation	glut_min3_l/activation	semimem_l/activation	semiten_l/activation	bifemlh_l/activation	bifemsh_l/activation	sar_l/activation	add_long_l/activation	add_brev_l/activation	add_mag1_l/activation	add_mag2_l/activation	add_mag3_l/activation	tfl_l/activation	pect_l/activation	grac_l/activation	glut_max1_l/activation	glut_max2_l/activation	glut_max3_l/activation	iliacus_l/activation	psoas_l/activation	quad_fem_l/activation	gem_l/activation	peri_l/activation	rect_fem_l/activation	vas_med_l/activation	vas_int_l/activation	vas_lat_l/activation	med_gas_l/activation	lat_gas_l/activation	soleus_l/activation	tib_post_l/activation	flex_dig_l/activation	flex_hal_l/activation	tib_ant_l/activation	per_brev_l/activation	per_long_l/activation	per_tert_l/activation	ext_dig_l/activation	ext_hal_l/activation	FDB_l/activation	ercspn_l/activation	intobl_l/activation	extobl_l/activation	glut_med1_r/activation	glut_med2_r/activation	glut_med3_r/activation	glut_min1_r/activation	glut_min2_r/activation	glut_min3_r/activation	semimem_r/activation	semiten_r/activation	bifemlh_r/activation	bifemsh_r/activation	sar_r/activation	add_long_r/activation	add_brev_r/activation	add_mag1_r/activation	add_mag2_r/activation	add_mag3_r/activation	tfl_r/activation	pect_r/activation	grac_r/activation	glut_max1_r/activation	glut_max2_r/activation	glut_max3_r/activation	iliacus_r/activation	psoas_r/activation	quad_fem_r/activation	gem_r/activation	peri_r/activation	rect_fem_r/activation	vas_med_r/activation	vas_int_r/activation	vas_lat_r/activation	med_gas_r/activation	lat_gas_r/activation	soleus_r/activation	tib_post_r/activation	flex_dig_r/activation	flex_hal_r/activation	tib_ant_r/activation	per_brev_r/activation	per_long_r/activation	per_tert_r/activation	ext_dig_r/activation	ext_hal_r/activation	FDB_r/activation	ercspn_r/activation	intobl_r/activation	extobl_r/activation	
          0.52259709	         -2.92713141	          1.59419717	         -3.10958368	          0.69505413	          0.91140460	          0.00230507	         29.54781744	          3.29155863	         -1.04846358	        -13.47717962	          1.23281465	          9.43994545	        -13.78452016	        -16.11568094	         11.09661591	          7.98508358	          3.68886157	         11.67956777	          0.03626617	         -1.29120801	          0.85940235	         14.80167950	         -3.97280931	         -1.05747305	          1.77232790	         -3.26154011	        -13.45786575	          7.72304529	          3.83110028	        -13.68426313	         19.32031476	         22.28278892	         39.96421419	         86.51662706	         86.51662706	          0.05000024	          0.05000017	          0.05870980	          0.05000010	          0.05000014	          0.05000062	          0.42707486	          0.08227259	          0.35901521	          0.09350718	          0.05063537	          0.11169637	          0.16612460	          0.09265995	          0.15146267	          0.14089365	          0.05000278	          0.05007971	          0.16025448	          0.05870965	          0.05871006	          0.10449511	          0.05788072	          0.05947681	          0.15533175	          0.05273996	          0.05000034	          0.05000005	          0.05000019	          0.05000016	          0.05000013	          0.05387740	          0.05000052	          0.05000003	          0.05000062	          0.05000115	          0.05000066	          0.38192121	          0.06730054	          0.09775576	          0.16822985	          0.58990918	          0.32603330	          0.26527415	          0.05871000	          0.08122903	          0.09504668	          0.21150358	          0.05942983	          0.05000013	          0.33953668	          0.19373192	          0.08095261	          0.05000165	          0.05000021	          0.05000017	          0.05000085	          0.11160215	          0.05000010	          0.05000011	          0.05000024	          0.05000073	          0.05000052	          0.53974337	          0.05000051	          0.05000033	          0.05000248	          0.05000103	          0.05000047	          0.42089900	          0.83353403	          0.05000008	          0.05000040	          0.05000010	          0.39750555	          0.12670611	          0.14860180	          0.12651147	          0.35035193	          0.45601998	          0.27507201	          0.50524001	          0.34870792	          0.52923485	          0.05000001	          0.06733702	          0.16216005	          0.05000008	          0.05000004	          0.08094601	          0.68621069	          0.05000001	          0.05000001	          0.05000004	
          0.53304903	         -2.92964354	          1.63313357	         -3.36605854	          0.71144540	          0.91022244	          0.00209075	         29.29277589	          3.58872567	         -1.10695607	        -13.95523605	          0.94446565	          9.61953149	        -14.11407017	        -16.80634486	         10.57073680	          6.91591683	          3.74931652	         12.25523591	          0.33765058	         -2.21880675	          0.22119899	         17.26830543	         -3.79828837	         -1.18061072	          1.84308273	         -3.99949946	        -13.44970740	          7.20086940	          3.39999662	        -13.64931848	         19.20058375	         21.76992256	         41.59939599	         86.51662706	         86.51662706	          0.05870993	          0.05870994	          0.05000012	          0.05870999	          0.05870998	          0.05870965	          0.39082495	          0.07006702	          0.32300389	          0.07963490	          0.05000024	          0.16060599	          0.24182848	          0.07891352	          0.12900534	          0.13924859	          0.05000015	          0.05442954	          0.13648010	          0.05000021	          0.05000021	          0.11383540	          0.08094599	          0.06864523	          0.48952188	          0.25156097	          0.11513512	          0.05000005	          0.05000006	          0.05000005	          0.05000004	          0.05160823	          0.05000028	          0.05000002	          0.06031554	          0.05871021	          0.06285102	          0.39965151	          0.11112606	          0.11862694	          0.14327255	          0.64613947	          0.27766504	          0.22591931	          0.05000006	          0.06917826	          0.08094598	          0.18012588	          0.05061315	          0.05000004	          0.28916459	          0.16499078	          0.06894295	          0.05000203	          0.05000018	          0.05000011	          0.05000061	          0.09504556	          0.08835330	          0.05000135	          0.05000042	          0.05000120	          0.05000058	          0.48494576	          0.05870208	          0.05000033	          0.05000067	          0.05000040	          0.05000033	          0.35845630	          0.78665556	          0.05000004	          0.05000022	          0.05000083	          0.33853355	          0.15531872	          0.17697204	          0.15558037	          0.30823792	          0.40308737	          0.23426354	          0.46154686	          0.29697538	          0.45072025	          0.05000000	          0.05734778	          0.13810271	          0.05000005	          0.05000003	          0.06893724	          0.58440748	          0.05000001	          0.05000011	          0.07573174	
          0.54350097	         -2.93017639	          1.68290840	         -3.60174361	          0.72811273	          0.90906508	          0.00186043	         29.01319567	          3.85167072	         -1.14995283	        -14.35652269	          0.64621480	          9.76924248	        -15.06404043	        -17.59389091	          9.67157548	          5.67426773	          3.82225800	         12.84677182	          0.63605725	         -3.25238442	         -0.37695569	         19.92054232	         -3.60928339	         -1.31656669	          1.90615404	         -4.74834531	        -13.46344975	          6.90649558	          2.89233047	        -13.62203804	         19.05658635	         21.26111560	         43.26076813	         86.51662706	         86.51662706	          0.05000001	          0.05000004	          0.12977028	          0.05000005	          0.05000006	          0.05000007	          0.33434922	          0.05967220	          0.27508448	          0.06782064	          0.07971283	          0.13677938	          0.34013442	          0.37536800	          0.20086899	          0.16144462	          0.05870945	          0.08083980	          0.11623262	          0.06133804	          0.10253479	          0.15865109	          0.06893747	          0.06893747	          0.69914758	          0.21424056	          0.09805426	          0.06893720	          0.08540396	          0.08617234	          0.07257223	          0.06893716	          0.06893743	          0.06893715	          0.05136742	          0.05000040	          0.05352684	          0.49250308	          0.19001498	          0.10102823	          0.35147924	          0.56125791	          0.23647193	          0.19240292	          0.05000000	          0.05891528	          0.06893720	          0.15340322	          0.05871010	          0.05871005	          0.24626544	          0.14051352	          0.05871502	          0.05000289	          0.05000101	          0.05870975	          0.05000008	          0.08094520	          0.21571886	          0.05000439	          0.17077639	          0.05871162	          0.05871197	          0.41300159	          0.05000117	          0.05875011	          0.05871089	          0.05871046	          0.05871045	          0.30527732	          0.73520891	          0.06893734	          0.05872874	          0.05870997	          0.28831022	          0.16574419	          0.18179792	          0.16218102	          0.26250912	          0.34328722	          0.19950923	          0.39307391	          0.25291745	          0.38385343	          0.05000014	          0.05000002	          0.11761441	          0.05000004	          0.05000001	          0.05871003	          0.49770735	          0.07306354	          0.06893702	          0.06449666	
          0.55395292	         -2.92875654	          1.76358309	         -3.81817939	          0.74500191	          0.90797745	          0.00165234	         28.63563800	          4.03991164	         -1.10213384	        -14.66689807	          0.33127760	          9.89748817	        -16.17474730	        -18.49607056	          8.70203842	          4.26342453	          3.90333741	         13.41377325	          0.88529435	         -4.36711341	         -0.87223627	         22.65619451	         -3.40530062	         -1.48709935	          1.96160270	         -5.48618996	        -13.50262541	          6.83853701	          2.32064932	        -13.59468748	         18.90616723	         20.72075540	         44.92785700	         86.51662706	         86.51662706	          0.35523172	          0.34686214	          0.40233842	          0.42811476	          0.29939032	          0.26284627	          0.28953377	          0.15223441	          0.24823842	          0.09610970	          0.06788705	          0.11648746	          0.31677291	          0.31968020	          0.19805201	          0.23924737	          0.05000021	          0.06884831	          0.23383597	          0.21120786	          0.19909913	          0.24637926	          0.05871025	          0.05871023	          0.59542514	          0.18245687	          0.15091729	          0.05870998	          0.07273381	          0.07338819	          0.06180574	          0.05870995	          0.05871018	          0.05870994	          0.05870996	          0.05871007	          0.05871001	          0.58927134	          0.16182522	          0.08604017	          0.43548836	          0.74142905	          0.55001766	          0.52404586	          0.07332218	          0.09504659	          0.05870998	          0.15982242	          0.05000016	          0.05000010	          0.20973083	          0.11966762	          0.05000436	          0.05000160	          0.05000021	          0.05000011	          0.05871172	          0.06893684	          0.21958531	          0.12531994	          0.14544085	          0.05000188	          0.05000194	          0.48611174	          0.06893779	          0.05003436	          0.05000110	          0.05000059	          0.05000053	          0.25998777	          0.81362441	          0.05871011	          0.05001605	          0.05000005	          0.24553779	          0.14115514	          0.15482720	          0.13812057	          0.22356442	          0.29235866	          0.16991092	          0.33475924	          0.21539575	          0.32690666	          0.18380148	          0.11806266	          0.10016571	          0.05000025	          0.14803127	          0.05000009	          0.42386967	          0.09889433	          0.05870983	          0.05492825	
